<svg xmlns="http://www.w3.org/2000/svg" width="728" height="318" viewBox="0 0 728 318" role="img" aria-labelledby="title desc">
  <title id="title">Lodesta wordmark in Figtree with equal awning scallops</title>
  <desc id="desc">A dark green Lodesta wordmark with seven identical awning scallops spanning the exact ink width of the wordmark. The wordmark is outlined from Figtree Regular.</desc>
  <defs>
    <style>
      .brand { fill: #14271E; }
      .awning {
        fill: none;
        stroke: #24493A;
        stroke-width: 8.5;
        stroke-linecap: butt;
        stroke-linejoin: round;
      }
    </style>
  </defs>
  <path class="brand" d="M140.44 183L65.74 183L65.74 57L81.04 57L81.04 169.14L140.44 169.14L140.44 183M194.98 185.16Q181.84 185.16 171.67 179.13Q161.50 173.10 155.74 162.48Q149.98 151.86 149.98 138Q149.98 124.14 155.65 113.52Q161.32 102.90 171.49 96.87Q181.66 90.84 194.62 90.84Q207.94 90.84 218.11 96.87Q228.28 102.90 233.95 113.52Q239.62 124.14 239.62 138Q239.62 151.86 233.95 162.48Q228.28 173.10 218.20 179.13Q208.12 185.16 194.98 185.16M194.98 171.84Q203.98 171.84 210.64 167.52Q217.30 163.20 221.17 155.64Q225.04 148.08 225.04 138Q225.04 127.92 221.17 120.36Q217.30 112.80 210.46 108.48Q203.62 104.16 194.62 104.16Q185.80 104.16 179.05 108.48Q172.30 112.80 168.43 120.36Q164.56 127.92 164.56 138Q164.56 147.90 168.43 155.55Q172.30 163.20 179.23 167.52Q186.16 171.84 194.98 171.84M295.06 185.16Q283 185.16 273.82 179.22Q264.64 173.28 259.51 162.57Q254.38 151.86 254.38 138Q254.38 123.96 259.51 113.34Q264.64 102.72 273.82 96.78Q283 90.84 295.06 90.84Q304.96 90.84 312.79 95.43Q320.62 100.02 325.48 108.12L325.48 57L339.88 57L339.88 183L326.20 183L325.48 167.70Q320.62 175.80 312.79 180.48Q304.96 185.16 295.06 185.16M298.30 172.02Q306.22 172.02 312.25 167.79Q318.28 163.56 321.79 155.91Q325.30 148.26 325.48 138.72L325.48 137.46Q325.30 127.74 321.79 120.09Q318.28 112.44 312.16 108.21Q306.04 103.98 298.12 103.98Q289.66 103.98 283 108.30Q276.34 112.62 272.65 120.36Q268.96 128.10 268.96 138Q268.96 147.90 272.74 155.64Q276.52 163.38 283.18 167.70Q289.84 172.02 298.30 172.02M404.50 185.16Q391.36 185.16 381.28 179.13Q371.20 173.10 365.53 162.48Q359.86 151.86 359.86 138Q359.86 124.14 365.53 113.52Q371.20 102.90 381.19 96.87Q391.18 90.84 404.14 90.84Q416.74 90.84 425.92 97.05Q435.10 103.26 440.14 114.42Q445.18 125.58 445.18 140.70L374.44 140.70Q375.34 155.46 383.80 163.74Q392.26 172.02 405.22 172.02Q414.76 172.02 421.33 167.52Q427.90 163.02 431.50 155.64L443.92 161.94Q440.50 168.96 434.83 174.18Q429.16 179.40 421.51 182.28Q413.86 185.16 404.50 185.16M375.52 128.64L429.70 128.64Q429.16 120.90 425.65 115.32Q422.14 109.74 416.56 106.68Q410.98 103.62 403.96 103.62Q397.12 103.62 390.82 106.59Q384.52 109.56 380.38 115.23Q376.24 120.90 375.52 128.64M494.86 185.16Q484.96 185.16 477.58 182.19Q470.20 179.22 465.25 174.36Q460.30 169.50 458.14 163.74L470.74 158.52Q473.80 164.64 479.92 168.42Q486.04 172.20 493.42 172.20Q501.88 172.20 507.64 168.87Q513.40 165.54 513.40 159.42Q513.40 153.84 509.17 150.42Q504.94 147 496.66 144.84L488.02 142.50Q475.78 139.26 468.94 132.69Q462.10 126.12 462.10 117.84Q462.10 105.06 470.47 97.95Q478.84 90.84 495.40 90.84Q503.32 90.84 509.80 93.18Q516.28 95.52 520.96 99.75Q525.64 103.98 527.80 109.74L515.20 115.32Q512.86 109.20 507.46 106.50Q502.06 103.80 494.32 103.80Q486.04 103.80 481.36 107.31Q476.68 110.82 476.68 117.12Q476.68 120.72 480.55 123.87Q484.42 127.02 491.98 129L500.98 131.34Q509.80 133.50 515.74 137.73Q521.68 141.96 524.74 147.36Q527.80 152.76 527.80 158.88Q527.80 166.98 523.48 172.92Q519.16 178.86 511.78 182.01Q504.40 185.16 494.86 185.16M581.08 185.16Q567.94 185.16 560.74 178.32Q553.54 171.48 553.54 159.06L553.54 105.78L537.88 105.78L537.88 93L553.54 93L553.54 64.92L567.94 64.92L567.94 93L594.94 93L594.94 105.78L567.94 105.78L567.94 157.62Q567.94 164.46 571.63 168.15Q575.32 171.84 581.98 171.84Q584.14 171.84 586.21 171.21Q588.28 170.58 591.70 168.06L597.28 179.76Q592.60 182.82 588.82 183.99Q585.04 185.16 581.08 185.16M643.18 185.16Q627.34 185.16 618.43 177.87Q609.52 170.58 609.52 157.62Q609.52 143.94 618.61 136.65Q627.70 129.36 644.08 129.36L669.10 129.36Q668.20 116.58 662.80 110.19Q657.40 103.80 646.60 103.80Q639.22 103.80 633.91 106.77Q628.60 109.74 625.18 116.22L612.22 111.18Q615.64 104.88 620.50 100.29Q625.36 95.70 631.84 93.27Q638.32 90.84 646.60 90.84Q659.20 90.84 667.39 95.79Q675.58 100.74 679.72 110.37Q683.86 120 683.68 134.22L683.50 183L670.18 183L669.46 170.94Q665.50 177.78 658.84 181.47Q652.18 185.16 643.18 185.16M643.90 172.56Q651.64 172.56 657.40 169.23Q663.16 165.90 666.31 159.78Q669.46 153.66 669.46 145.02L669.46 141.42L647.32 141.42Q634.72 141.42 629.41 145.56Q624.10 149.70 624.10 157.44Q624.10 164.46 629.32 168.51Q634.54 172.56 643.90 172.56"/>
  <path class="awning" d="M 65.74 221 C 67.74 250 85.16 270 109.88 270 C 134.60 270 152.02 250 154.02 221 C 156.02 250 173.44 270 198.16 270 C 222.88 270 240.30 250 242.30 221 C 244.30 250 261.72 270 286.44 270 C 311.16 270 328.58 250 330.58 221 C 332.58 250 350.00 270 374.72 270 C 399.44 270 416.86 250 418.86 221 C 420.86 250 438.28 270 463.00 270 C 487.72 270 505.14 250 507.14 221 C 509.14 250 526.56 270 551.28 270 C 576.00 270 593.42 250 595.42 221 C 597.42 250 614.84 270 639.56 270 C 664.28 270 681.69 250 683.69 221"/>
</svg>
