<svg xmlns="http://www.w3.org/2000/svg" width="728" height="318" viewBox="0 0 728 318" role="img" aria-labelledby="title desc">
  <title id="title">Lodesta wordmark with letter-aligned awning</title>
  <desc id="desc">A dark green Lodesta wordmark with seven scallops in the awning, one aligned under each letter. The wordmark is outlined from Geist Sans Regular.</desc>
  <defs>
    <style>
      .brand { fill: #14271E; }
      .awning {
        fill: none;
        stroke: #24493A;
        stroke-width: 7;
        stroke-linecap: round;
        stroke-linejoin: round;
      }
    </style>
  </defs>
  <path class="brand" d="M64.46 183L138.71 183L138.71 168.55L79.24 168.55L79.24 63.72L64.46 63.72M188.61 185.02C213.30 185.02 229.43 166.87 229.43 138.48C229.43 110.09 213.30 91.94 188.61 91.94C163.91 91.94 147.78 110.09 147.78 138.48C147.78 166.87 163.91 185.02 188.61 185.02M162.90 138.48C162.90 117.98 172.31 105.72 188.61 105.72C204.90 105.72 214.31 117.98 214.31 138.48C214.31 158.98 204.90 171.24 188.61 171.24C172.31 171.24 162.90 158.98 162.90 138.48M324.52 63.72L310.07 63.72L310.07 105.38C305.20 97.15 294.78 91.94 282.86 91.94C259.67 91.94 245.22 109.92 245.22 138.48C245.22 167.04 259.67 185.02 282.86 185.02C295.29 185.02 306.04 179.47 310.91 170.57L311.42 183L324.52 183M260.34 138.48C260.34 117.98 270.26 105.05 285.88 105.05C301.50 105.05 311.42 117.98 311.42 138.48C311.42 158.64 301.50 171.24 285.88 171.24C270.26 171.24 260.34 158.64 260.34 138.48M345.86 138.48C345.86 166.87 361.98 185.02 386.68 185.02C403.82 185.02 418.94 174.60 424.14 157.80L408.69 156.62C404.66 165.86 396.09 171.24 386.68 171.24C371.56 171.24 362.49 160.82 361.14 143.02L425.49 143.02L425.32 136.46C423.81 104.54 406.17 91.94 386.68 91.94C361.98 91.94 345.86 110.09 345.86 138.48M361.48 130.25C363.83 114.79 372.74 105.72 386.68 105.72C397.26 105.72 407.18 111.77 409.70 130.25M497.90 121.51L513.02 120.50C510.16 103.20 495.54 91.94 477.74 91.94C457.24 91.94 443.46 102.70 443.46 119.83C443.46 137.30 460.94 141.84 477.06 145.54C487.14 147.89 499.58 148.90 499.58 159.48C499.58 168.55 488.32 171.24 479.92 171.24C466.65 171.24 458.25 164.52 456.40 153.94L441.28 154.94C442.62 173.42 458.75 185.02 479.92 185.02C496.72 185.02 514.70 177.62 514.70 160.32C514.70 142.51 499.74 136.97 479.58 133.10C470.18 131.26 458.58 127.73 458.58 118.99C458.58 110.59 466.48 105.72 476.22 105.72C485.97 105.72 495.88 111.60 497.90 121.51M539.73 73.80L539.73 93.96L526.79 93.96L526.79 106.73L539.73 106.73L539.73 159.14C539.73 174.43 548.63 183 564.76 183L577.70 183L577.70 170.23L564.76 170.23C557.70 170.23 554.18 166.54 554.18 159.14L554.18 106.73L578.03 106.73L578.03 93.96L554.18 93.96L554.18 73.80M593.66 120.17L608.94 121.34C611.63 111.26 619.02 105.72 630.11 105.72C644.39 105.72 651.45 112.94 651.62 127.73L625.74 132.77C605.92 136.63 592.14 141.17 592.14 159.65C592.14 175.61 606.59 185.02 624.23 185.02C638.34 185.02 648.09 177.46 651.78 169.39C651.78 180.14 659.85 183 668.92 183L675.14 183L675.14 170.23L671.44 170.23C667.74 170.23 666.06 168.55 666.06 164.86L666.06 129.24C666.06 105.38 653.13 91.94 630.11 91.94C611.13 91.94 597.18 102.86 593.66 120.17M607.26 159.65C607.26 147.22 618.02 146.54 631.12 144.19L651.95 140.50L651.95 141.34C651.95 162.17 640.53 172.25 626.08 172.25C613.14 172.25 607.26 166.54 607.26 159.65"/>
  <path class="awning" d="M 57 221 C 59 247 77 268 101.80 268 C 126.60 268 144.60 247 146.61 221 C 148.60 249 168.55 270 195.33 270 C 222.11 270 242.06 249 244.05 221 C 246.11 250 266.69 271 294.37 271 C 322.04 271 342.62 250 344.68 221 C 346.63 249 366.19 270 392.39 270 C 418.59 270 438.15 249 440.10 221 C 441.92 247 460.37 268 484.71 268 C 509.05 268 527.49 247 529.31 221 C 530.67 242 544.67 260 562.66 260 C 580.65 260 594.65 242 596.01 221 C 598.00 249 617.95 270 644.40 270 C 670.84 270 690.79 249 692.78 221"/>
</svg>
